# xmcd
#
# Track frame offsets: 
#        150
#        8375
#        24851
#        36090
#        47505
#        64434
#        79197
#        82534
#        101210
#        107227
#        124368
#        140280
#        155580
#        169833
#        184947
#        197482
#
# Disc length: 2849 seconds
#
# Revision: 3
# Processed by: cddbd v1.5.2PL0 Copyright (c) Steve Scherf et al.
# Submitted via: ExactAudioCopy v0.95b4
#
DISCID=c70b1f10
DTITLE=Uncle Earl - Waterloo, Tennessee
DYEAR=2007
DGENRE=Bluegrass
TTITLE0=Black-Eyed Susie
TTITLE1=The Last Goodbye
TTITLE2=One True
TTITLE3=Wish I Had My Time Again
TTITLE4=My Little Carpenter
TTITLE5=My Epitaph
TTITLE6=Buonaparte
TTITLE7=Bony on the Isle of St. Helena
TTITLE8=Sisters of the Road
TTITLE9=Streak o'Lean, Streak o'Fat
TTITLE10=D and P Blues
TTITLE11=The Birds were Singing of You
TTITLE12=Wallflower
TTITLE13=Drinker Born
TTITLE14=Easy in the Early ('Til Sundown)
TTITLE15=I May Never
EXTD=
EXTT0=
EXTT1=
EXTT2=
EXTT3=
EXTT4=
EXTT5=
EXTT6=
EXTT7=
EXTT8=
EXTT9=
EXTT10=
EXTT11=
EXTT12=
EXTT13=
EXTT14=
EXTT15=
PLAYORDER=
